<svg width="35" height="35" viewBox="0 0 35 35" fill="none" xmlns="http://www.w3.org/2000/svg">
<path d="M17.5001 24.4467C15.7332 24.4467 14.2958 23.0094 14.2958 21.2425C14.2958 19.4757 15.7332 18.0383 17.5001 18.0383C19.2669 18.0383 20.7043 19.4757 20.7043 21.2425C20.7043 23.0094 19.2669 24.4467 17.5001 24.4467ZM17.5001 19.4056C16.4871 19.4056 15.663 20.2297 15.663 21.2426C15.663 22.2555 16.4871 23.0796 17.5001 23.0796C18.5129 23.0796 19.3371 22.2556 19.3371 21.2426C19.3371 20.2297 18.5129 19.4056 17.5001 19.4056Z" fill="#1967D2"/>
<path d="M21.642 17.0638C21.171 17.0768 20.8169 16.5493 21.0104 16.1184C21.303 15.4339 22.3171 15.6363 22.3256 16.3802C22.3324 16.7473 22.0089 17.07 21.642 17.0638Z" fill="#1967D2"/>
<path d="M32.8105 2.26748C31.8419 2.26748 31.0181 2.8998 30.7303 3.77336H20.439C19.9871 2.59 18.8401 1.74719 17.4999 1.74719C16.1597 1.74719 15.0127 2.58993 14.5608 3.77336H4.26966C3.98187 2.8998 3.15813 2.26748 2.18948 2.26748C0.982188 2.26748 0 3.24966 0 4.45696C0 5.66418 0.982188 6.64644 2.18948 6.64644C3.15813 6.64644 3.98187 6.01412 4.26966 5.14055H8.16491C7.72003 5.43347 7.29976 5.77103 6.9099 6.15084C5.37147 7.64975 4.47795 9.63867 4.38484 11.764C3.36902 12.0575 2.62397 12.9959 2.62397 14.1051C2.62397 15.4485 3.7169 16.5415 5.0603 16.5415C6.4037 16.5415 7.4967 15.4485 7.4967 14.1051C7.4967 13.0023 6.76026 12.0684 5.75333 11.7691C5.94467 8.09894 9.04244 5.14055 12.7356 5.14055H14.3652C14.4924 6.75862 15.8497 8.03632 17.4999 8.03632C19.1501 8.03632 20.5075 6.75862 20.6348 5.14055H22.2643C25.9538 5.14055 29.0546 8.0999 29.2464 11.7681C28.2377 12.0662 27.4995 13.001 27.4995 14.1051C27.4995 15.4485 28.5925 16.5415 29.9359 16.5415C31.2793 16.5415 32.3723 15.4485 32.3723 14.1051C32.3723 12.9972 31.6291 12.0598 30.615 11.765C30.5221 9.636 29.6257 7.6438 28.0833 6.14434C27.6953 5.76713 27.2772 5.43176 26.8348 5.14048H30.7303C31.0181 6.01405 31.8419 6.64637 32.8105 6.64637C34.0178 6.64644 35 5.66418 35 4.45696C35 3.24966 34.0178 2.26748 32.8105 2.26748ZM2.18948 5.27925C1.73605 5.27925 1.36719 4.91039 1.36719 4.45696C1.36719 4.00353 1.73605 3.63466 2.18948 3.63466C2.64291 3.63466 3.01178 4.00353 3.01178 4.45696C3.01178 4.91039 2.64291 5.27925 2.18948 5.27925ZM6.12951 14.1051C6.12951 14.6946 5.6499 15.1743 5.0603 15.1743C4.47077 15.1743 3.99116 14.6947 3.99116 14.1051C3.99116 13.5155 4.47077 13.0359 5.0603 13.0359C5.6499 13.0359 6.12951 13.5155 6.12951 14.1051ZM17.4999 6.66914C16.5199 6.66914 15.7225 5.87179 15.7225 4.89179C15.7225 3.91172 16.5199 3.11445 17.4999 3.11445C18.4799 3.11445 19.2773 3.91179 19.2773 4.89179C19.2773 5.87179 18.4799 6.66914 17.4999 6.66914ZM31.0051 14.1051C31.0051 14.6946 30.5254 15.1743 29.9359 15.1743C29.3463 15.1743 28.8667 14.6947 28.8667 14.1051C28.8667 13.5155 29.3463 13.0359 29.9359 13.0359C30.5254 13.0359 31.0051 13.5155 31.0051 14.1051ZM32.8105 5.27925C32.3571 5.27925 31.9883 4.91039 31.9883 4.45696C31.9883 4.00353 32.3571 3.63466 32.8105 3.63466C33.2639 3.63466 33.6328 4.00353 33.6328 4.45696C33.6328 4.91039 33.2639 5.27925 32.8105 5.27925Z" fill="#1967D2"/>
<path d="M23.5145 18.3955C23.3344 18.0637 22.9194 17.941 22.5875 18.1211C22.2558 18.3013 22.1329 18.7164 22.3131 19.0482L23.1285 20.5491C23.5135 21.2578 23.5215 22.1082 23.1499 22.824L21.2014 26.578H13.7985L11.8498 22.8241C11.4783 22.1083 11.4863 21.2578 11.8712 20.5492L16.8164 11.4459V15.6581C16.8164 16.0356 17.1224 16.3417 17.5 16.3417C17.8774 16.3417 18.1835 16.0356 18.1835 15.6581V11.446L19.5632 13.9857C19.7434 14.3176 20.1584 14.4403 20.4903 14.2601C20.822 14.0799 20.9449 13.6649 20.7647 13.3331L18.8464 9.80202C18.7268 9.58183 18.4964 9.4447 18.2458 9.4447H16.7543C16.5037 9.4447 16.2732 9.58176 16.1536 9.80202L10.6699 19.8966C10.068 21.0047 10.0555 22.3346 10.6365 23.4539L12.2582 26.5781H12.068C11.6904 26.5781 11.3844 26.8841 11.3844 27.2617C11.3844 27.6392 11.6904 27.9453 12.068 27.9453H12.5073L11.3935 32.4033C11.3425 32.6075 11.3884 32.8238 11.518 32.9897C11.6475 33.1556 11.8463 33.2526 12.0568 33.2526H22.9431C23.1535 33.2526 23.3523 33.1556 23.4819 32.9897C23.6114 32.8238 23.6573 32.6075 23.6063 32.4033L22.4925 27.9453H22.932C23.3095 27.9453 23.6156 27.6392 23.6156 27.2617C23.6156 26.8841 23.3095 26.5781 22.932 26.5781H22.7418L24.3635 23.4539C24.9446 22.3345 24.9321 21.0047 24.3301 19.8964L23.5145 18.3955ZM22.0676 31.8854H12.932L13.9165 27.9453H21.0831L22.0676 31.8854Z" fill="#1967D2"/>
</svg>
