<svg width="35" height="35" viewBox="0 0 35 35" fill="none" xmlns="http://www.w3.org/2000/svg">
<path d="M23.6287 16.4608C23.6263 16.4608 23.6239 16.4608 23.6215 16.4608H20.6904V13.5225C20.6944 12.9299 20.2172 12.4462 19.6246 12.4423C19.6221 12.4423 19.6197 12.4423 19.6174 12.4423H15.3828C14.7902 12.4423 14.3098 12.9227 14.3098 13.5153V16.4536H11.3787C10.7861 16.4496 10.3024 16.9267 10.2984 17.5193C10.2984 17.5242 10.2984 17.529 10.2984 17.5338V21.7612C10.2984 22.3538 10.7789 22.8342 11.3715 22.8342H14.3098V25.7653C14.3058 26.3579 14.783 26.8416 15.3756 26.8456C15.378 26.8456 15.3805 26.8456 15.3828 26.8456H19.6102C20.2028 26.8456 20.6832 26.3651 20.6832 25.7725V22.8342H23.6215C24.2141 22.8382 24.6978 22.361 24.7017 21.7684C24.7017 21.766 24.7017 21.7635 24.7017 21.7612V17.5338C24.7017 16.9412 24.2214 16.4608 23.6287 16.4608ZM23.2614 21.3939H19.9703C19.5725 21.3939 19.2501 21.7164 19.2501 22.1141V25.4052H15.7501V22.1141C15.7501 21.7164 15.4276 21.3939 15.0299 21.3939H11.7388V17.9011H15.0299C15.4276 17.9011 15.7501 17.5787 15.7501 17.1809V13.8826H19.2429V17.1737C19.2429 17.5715 19.5653 17.8939 19.9631 17.8939H23.2614V21.3939Z" fill="#1967D2"/>
<path d="M30.0309 7.05554H24.0967V4.52056C24.1341 3.3638 23.2266 2.39572 22.0698 2.35836C22.0108 2.35647 21.9519 2.35701 21.893 2.36007H13.107C11.9511 2.29984 10.9653 3.18799 10.905 4.34376C10.9019 4.40264 10.9013 4.4616 10.9033 4.52056V7.04114H4.96914C2.67901 7.04114 0 8.34464 0 12.0103V27.6739C0 31.3395 2.67901 32.643 4.96914 32.643H30.0309C32.321 32.643 35 31.3395 35 27.6739V12.0247C35 8.35904 32.3282 7.05554 30.0309 7.05554ZM12.3436 4.52056C12.3436 4.31171 12.3436 3.74999 13.1142 3.74999H21.893C22.6636 3.74999 22.6636 4.30451 22.6636 4.52056V7.04114H12.3436V4.52056ZM33.5597 27.6739C33.5597 30.857 31.0967 31.2027 30.0309 31.2027H4.96914C3.91049 31.2027 1.44033 30.857 1.44033 27.6739V12.0247C1.44033 8.84155 3.90329 8.49587 4.96914 8.49587H30.0309C31.0895 8.49587 33.5597 8.84155 33.5597 12.0247V27.6739Z" fill="#1967D2"/>
</svg>
