<svg width="171" height="50" viewBox="0 0 171 50" fill="none" xmlns="http://www.w3.org/2000/svg">
<path fill-rule="evenodd" clip-rule="evenodd" d="M20 0C8.95431 0 0 8.9543 0 20V30C0 41.0457 8.9543 50 20 50H30C41.0457 50 50 41.0457 50 30V20C50 8.95431 41.0457 0 30 0H20ZM33 12.4698L19.8375 25.2607C17.824 23.3025 17.824 20.1385 19.8375 18.1804L25.7195 12.4602C27.733 10.5117 30.9865 10.5117 33 12.4698ZM19.5102 38.881L29.0225 29.6304C31.0361 27.6722 31.0361 24.5083 29.0225 22.5501L19.5102 31.8008C17.4966 33.7589 17.4966 36.9229 19.5102 38.881ZM31.3336 26.0902C31.3336 25.8008 31.3039 25.5115 31.2642 25.2317C32.0676 27.0645 31.7006 29.2542 30.1731 30.7493L20.6608 40C20.4624 39.8071 20.2839 39.5949 20.1252 39.3826L29.5978 30.1706C30.7186 29.0805 31.3336 27.6336 31.3336 26.0902ZM28.1595 22.2993L23.944 26.4085L20.7104 25.5018L24.9755 21.3636L28.1595 22.2993Z" fill="#1967D2"/>
<path d="M73.875 34.225C72.4917 34.225 71.2417 34.05 70.125 33.7C69.0083 33.3333 68.0417 32.8083 67.225 32.125L67.95 30.475C68.8 31.125 69.6917 31.6083 70.625 31.925C71.5583 32.2417 72.6417 32.4 73.875 32.4C75.375 32.4 76.4833 32.125 77.2 31.575C77.9333 31.0083 78.3 30.2667 78.3 29.35C78.3 28.6167 78.0333 28.0333 77.5 27.6C76.9833 27.1667 76.1083 26.825 74.875 26.575L72.275 26.05C70.7083 25.7167 69.5333 25.175 68.75 24.425C67.9833 23.6583 67.6 22.6417 67.6 21.375C67.6 20.325 67.8667 19.4083 68.4 18.625C68.95 17.8417 69.7083 17.2333 70.675 16.8C71.6417 16.3667 72.7583 16.15 74.025 16.15C75.2083 16.15 76.3083 16.3417 77.325 16.725C78.3417 17.0917 79.2 17.625 79.9 18.325L79.175 19.925C78.425 19.2417 77.6333 18.75 76.8 18.45C75.9667 18.1333 75.0333 17.975 74 17.975C72.6833 17.975 71.6333 18.2833 70.85 18.9C70.0667 19.5 69.675 20.3 69.675 21.3C69.675 22.1 69.9167 22.7333 70.4 23.2C70.9 23.6667 71.7083 24.0083 72.825 24.225L75.425 24.775C77.1083 25.125 78.35 25.6583 79.15 26.375C79.9667 27.075 80.375 28.0333 80.375 29.25C80.375 30.2333 80.1083 31.1 79.575 31.85C79.0583 32.6 78.3083 33.1833 77.325 33.6C76.3583 34.0167 75.2083 34.225 73.875 34.225ZM88.3309 34.225C87.1475 34.225 86.1225 33.9667 85.2559 33.45C84.3892 32.9333 83.7142 32.2083 83.2309 31.275C82.7642 30.325 82.5309 29.2083 82.5309 27.925C82.5309 26.6417 82.7642 25.5333 83.2309 24.6C83.7142 23.65 84.3892 22.9167 85.2559 22.4C86.1225 21.8833 87.1475 21.625 88.3309 21.625C89.4975 21.625 90.5142 21.8833 91.3809 22.4C92.2642 22.9167 92.9392 23.65 93.4059 24.6C93.8892 25.5333 94.1309 26.6417 94.1309 27.925C94.1309 29.2083 93.8892 30.325 93.4059 31.275C92.9392 32.2083 92.2642 32.9333 91.3809 33.45C90.5142 33.9667 89.4975 34.225 88.3309 34.225ZM88.3309 32.6C89.4642 32.6 90.3725 32.2 91.0559 31.4C91.7392 30.5833 92.0809 29.425 92.0809 27.925C92.0809 26.4083 91.7392 25.25 91.0559 24.45C90.3725 23.65 89.4642 23.25 88.3309 23.25C87.1809 23.25 86.2642 23.65 85.5809 24.45C84.9142 25.25 84.5809 26.4083 84.5809 27.925C84.5809 29.425 84.9142 30.5833 85.5809 31.4C86.2642 32.2 87.1809 32.6 88.3309 32.6ZM97.2225 34V21.85H99.1975V23.9C99.5641 23.1667 100.072 22.6083 100.722 22.225C101.372 21.825 102.131 21.625 102.997 21.625C104.897 21.625 106.114 22.45 106.647 24.1C107.014 23.3333 107.556 22.7333 108.272 22.3C108.989 21.85 109.814 21.625 110.747 21.625C113.447 21.625 114.797 23.225 114.797 26.425V34H112.772V26.525C112.772 25.4083 112.572 24.5917 112.172 24.075C111.789 23.5417 111.147 23.275 110.247 23.275C109.264 23.275 108.481 23.625 107.897 24.325C107.314 25.025 107.022 25.9583 107.022 27.125V34H104.997V26.525C104.997 25.4083 104.797 24.5917 104.397 24.075C104.014 23.5417 103.372 23.275 102.472 23.275C101.472 23.275 100.681 23.625 100.097 24.325C99.5308 25.025 99.2475 25.9583 99.2475 27.125V34H97.2225Z" fill="#202124"/>
<path d="M116.584 34.175L116.434 32.45L117.934 32.35C118.784 32.2833 119.434 31.9917 119.884 31.475C120.334 30.9417 120.559 30.2167 120.559 29.3V16.375H122.609V29.325C122.609 30.775 122.234 31.9083 121.484 32.725C120.734 33.525 119.642 33.975 118.209 34.075L116.584 34.175ZM131.739 34.225C130.556 34.225 129.531 33.9667 128.664 33.45C127.797 32.9333 127.122 32.2083 126.639 31.275C126.172 30.325 125.939 29.2083 125.939 27.925C125.939 26.6417 126.172 25.5333 126.639 24.6C127.122 23.65 127.797 22.9167 128.664 22.4C129.531 21.8833 130.556 21.625 131.739 21.625C132.906 21.625 133.922 21.8833 134.789 22.4C135.672 22.9167 136.347 23.65 136.814 24.6C137.297 25.5333 137.539 26.6417 137.539 27.925C137.539 29.2083 137.297 30.325 136.814 31.275C136.347 32.2083 135.672 32.9333 134.789 33.45C133.922 33.9667 132.906 34.225 131.739 34.225ZM131.739 32.6C132.872 32.6 133.781 32.2 134.464 31.4C135.147 30.5833 135.489 29.425 135.489 27.925C135.489 26.4083 135.147 25.25 134.464 24.45C133.781 23.65 132.872 23.25 131.739 23.25C130.589 23.25 129.672 23.65 128.989 24.45C128.322 25.25 127.989 26.4083 127.989 27.925C127.989 29.425 128.322 30.5833 128.989 31.4C129.672 32.2 130.589 32.6 131.739 32.6ZM146.731 34.225C145.764 34.225 144.914 34.0083 144.181 33.575C143.464 33.1417 142.922 32.55 142.556 31.8V34H140.581V16.375H142.606V23.95C142.956 23.2333 143.497 22.6667 144.231 22.25C144.964 21.8333 145.797 21.625 146.731 21.625C147.814 21.625 148.756 21.8833 149.556 22.4C150.372 22.9 150.997 23.625 151.431 24.575C151.881 25.5083 152.106 26.625 152.106 27.925C152.106 29.2083 151.881 30.325 151.431 31.275C150.997 32.2083 150.372 32.9333 149.556 33.45C148.756 33.9667 147.814 34.225 146.731 34.225ZM146.306 32.6C147.439 32.6 148.347 32.2 149.031 31.4C149.714 30.5833 150.056 29.425 150.056 27.925C150.056 26.4083 149.714 25.25 149.031 24.45C148.347 23.65 147.439 23.25 146.306 23.25C145.172 23.25 144.264 23.65 143.581 24.45C142.897 25.25 142.556 26.4083 142.556 27.925C142.556 29.425 142.897 30.5833 143.581 31.4C144.264 32.2 145.172 32.6 146.306 32.6ZM159.256 34.225C158.306 34.225 157.406 34.0917 156.556 33.825C155.706 33.5583 155.006 33.1833 154.456 32.7L155.106 31.275C155.706 31.7583 156.364 32.1167 157.081 32.35C157.814 32.5667 158.556 32.675 159.306 32.675C160.256 32.675 160.973 32.5 161.456 32.15C161.939 31.8 162.181 31.325 162.181 30.725C162.181 30.2583 162.023 29.8917 161.706 29.625C161.389 29.3417 160.889 29.125 160.206 28.975L157.931 28.475C155.864 28.025 154.831 26.9583 154.831 25.275C154.831 24.175 155.264 23.2917 156.131 22.625C157.014 21.9583 158.164 21.625 159.581 21.625C160.414 21.625 161.206 21.7583 161.956 22.025C162.723 22.275 163.356 22.65 163.856 23.15L163.181 24.575C162.698 24.125 162.131 23.7833 161.481 23.55C160.848 23.3 160.214 23.175 159.581 23.175C158.648 23.175 157.939 23.3583 157.456 23.725C156.973 24.0917 156.731 24.575 156.731 25.175C156.731 26.1083 157.348 26.7083 158.581 26.975L160.856 27.45C161.923 27.6833 162.731 28.0583 163.281 28.575C163.831 29.075 164.106 29.7583 164.106 30.625C164.106 31.7417 163.664 32.625 162.781 33.275C161.898 33.9083 160.723 34.225 159.256 34.225Z" fill="#F59F00"/>
</svg>
